#tb 0: 1/30
#media_type 0: video
#codec_id 0: rawvideo
#dimensions 0: 512x256
#sar 0: 0/1
0,          0,          0,        1,   393216, 0x56995aac
0,          1,          1,        1,   393216, 0xf9ed5d6c
0,          2,          2,        1,   393216, 0xd3285d75
0,          3,          3,        1,   393216, 0x82d15d62
0,          4,          4,        1,   393216, 0x893e5d6f
0,          5,          5,        1,   393216, 0x82d15d62
0,          6,          6,        1,   393216, 0x893e5d6f
0,          7,          7,        1,   393216, 0x82d15d62
0,          8,          8,        1,   393216, 0x893e5d6f
0,          9,          9,        1,   393216, 0x82d15d62
0,         10,         10,        1,   393216, 0x893e5d6f
0,         11,         11,        1,   393216, 0x82d15d62
0,         12,         12,        1,   393216, 0x893e5d6f
0,         13,         13,        1,   393216, 0x82d15d62
0,         14,         14,        1,   393216, 0x893e5d6f
0,         15,         15,        1,   393216, 0x82d15d62
0,         16,         16,        1,   393216, 0x2ae39eca
0,         17,         17,        1,   393216, 0x9254be70
0,         18,         18,        1,   393216, 0x4b2ed384
0,         19,         19,        1,   393216, 0xbbd9d8f7
0,         20,         20,        1,   393216, 0x1f2be0c3
0,         21,         21,        1,   393216, 0x2434eb25
0,         22,         22,        1,   393216, 0xa6cced4e
0,         23,         23,        1,   393216, 0xd116f38b
0,         24,         24,        1,   393216, 0x6b86f380
0,         25,         25,        1,   393216, 0xc1b3f8e9
0,         26,         26,        1,   393216, 0x2993fd5d
0,         27,         27,        1,   393216, 0xf489fe18
0,         28,         28,        1,   393216, 0x9ef10501
0,         29,         29,        1,   393216, 0x8faf0512
0,         30,         30,        1,   393216, 0xa54d0736
0,         31,         31,        1,   393216, 0xf4ef01e0
0,         32,         32,        1,   393216, 0xe241ef51
0,         33,         33,        1,   393216, 0xcc38e51f
0,         34,         34,        1,   393216, 0xb1345876
0,         35,         35,        1,   393216, 0xf9b0968b
0,         36,         36,        1,   393216, 0x6bb1523f
0,         37,         37,        1,   393216, 0x83469a05
0,         38,         38,        1,   393216, 0x73e30882
0,         39,         39,        1,   393216, 0x8673da66
0,         40,         40,        1,   393216, 0xb67596d3
0,         41,         41,        1,   393216, 0xf7638710
0,         42,         42,        1,   393216, 0x813a8f47
0,         43,         43,        1,   393216, 0xb3526555
0,         44,         44,        1,   393216, 0x1b167be3
0,         45,         45,        1,   393216, 0x99114562
0,         46,         46,        1,   393216, 0xfafb0693
0,         47,         47,        1,   393216, 0x121d96c8
0,         48,         48,        1,   393216, 0xb3c68c5d
0,         49,         49,        1,   393216, 0x2035b97f
0,         50,         50,        1,   393216, 0xfbcaeb62
0,         51,         51,        1,   393216, 0xfd5aea5d
0,         52,         52,        1,   393216, 0x66efbddd
0,         53,         53,        1,   393216, 0xf1e17862
0,         54,         54,        1,   393216, 0x27fa584d
0,         55,         55,        1,   393216, 0xe644ec5f
0,         56,         56,        1,   393216, 0x7e3067ba
0,         57,         57,        1,   393216, 0x1b6ba6fd
0,         58,         58,        1,   393216, 0x55bdba34
0,         59,         59,        1,   393216, 0xc67db2e4
0,         60,         60,        1,   393216, 0x359de8a2
0,         61,         61,        1,   393216, 0x7b7a32ef
0,         62,         62,        1,   393216, 0xbe512a66
0,         63,         63,        1,   393216, 0x681d82bf
0,         64,         64,        1,   393216, 0xa2320ec5
0,         65,         65,        1,   393216, 0xcfbd9954
0,         66,         66,        1,   393216, 0x7fee9854
0,         67,         67,        1,   393216, 0x70eec155
0,         68,         68,        1,   393216, 0x114f684e
0,         69,         69,        1,   393216, 0xe27f034f
0,         70,         70,        1,   393216, 0xfbbd89b4
0,         71,         71,        1,   393216, 0xcef4c58a
0,         72,         72,        1,   393216, 0x9eea88e9
0,         73,         73,        1,   393216, 0x911cea42
0,         74,         74,        1,   393216, 0xec5727ea
0,         75,         75,        1,   393216, 0xda998c33
0,         76,         76,        1,   393216, 0xc82140ed
0,         77,         77,        1,   393216, 0x4caa8591
0,         78,         78,        1,   393216, 0x4944206c
0,         79,         79,        1,   393216, 0xd4676a94
0,         80,         80,        1,   393216, 0x9e0340b3
0,         81,         81,        1,   393216, 0xbdef7f94
0,         82,         82,        1,   393216, 0xfac05cb0
0,         83,         83,        1,   393216, 0xfef5a369
0,         84,         84,        1,   393216, 0x9fcb3711
0,         85,         85,        1,   393216, 0x6d93f761
0,         86,         86,        1,   393216, 0xe95dc1ae
0,         87,         87,        1,   393216, 0x3e561557
0,         88,         88,        1,   393216, 0x0fa7a049
0,         89,         89,        1,   393216, 0xf16afb95
0,         90,         90,        1,   393216, 0xe53a2064
0,         91,         91,        1,   393216, 0x57f046a4
0,         92,         92,        1,   393216, 0xf6f16a0c
0,         93,         93,        1,   393216, 0xcba0c8b0
0,         94,         94,        1,   393216, 0x5bdbe522
0,         95,         95,        1,   393216, 0x0fed0151
0,         96,         96,        1,   393216, 0xbf86faf8
0,         97,         97,        1,   393216, 0x39854c5f
0,         98,         98,        1,   393216, 0xd9b7760a
0,         99,         99,        1,   393216, 0x8edcc1d9
0,        100,        100,        1,   393216, 0x44ae1435
0,        101,        101,        1,   393216, 0xbc3d6d73
0,        102,        102,        1,   393216, 0xedd82647
0,        103,        103,        1,   393216, 0x1c2e5ce3
0,        104,        104,        1,   393216, 0x04e29afe
0,        105,        105,        1,   393216, 0xb191578e
0,        106,        106,        1,   393216, 0x31d75a06
0,        107,        107,        1,   393216, 0xfdb6c56e
0,        108,        108,        1,   393216, 0xf528f484
0,        109,        109,        1,   393216, 0x87af758e
0,        110,        110,        1,   393216, 0xc8bdafb7
0,        111,        111,        1,   393216, 0x573afe93
0,        112,        112,        1,   393216, 0xb03cb8f5
0,        113,        113,        1,   393216, 0x6e03ac71
0,        114,        114,        1,   393216, 0xf919164e
0,        115,        115,        1,   393216, 0x80059f3c
0,        116,        116,        1,   393216, 0xf4ea0b1a
0,        117,        117,        1,   393216, 0xe7720ffb
0,        118,        118,        1,   393216, 0x1ec0cd56
0,        119,        119,        1,   393216, 0x2bc8cf18
0,        120,        120,        1,   393216, 0xe0bf17b5
0,        121,        121,        1,   393216, 0x660247e1
0,        122,        122,        1,   393216, 0xcf66f2a9
0,        123,        123,        1,   393216, 0x5494d5ab
0,        124,        124,        1,   393216, 0x2c02f2c4
0,        125,        125,        1,   393216, 0x93fa3783
0,        126,        126,        1,   393216, 0x4cc50633
0,        127,        127,        1,   393216, 0x3f179386
0,        128,        128,        1,   393216, 0x2bca9e1b
0,        129,        129,        1,   393216, 0x3e4af867
0,        130,        130,        1,   393216, 0x7e7df93c
0,        131,        131,        1,   393216, 0x577e4fb0
0,        132,        132,        1,   393216, 0x34487f0a
0,        133,        133,        1,   393216, 0x0937bcfc
0,        134,        134,        1,   393216, 0xa9e75a5e
0,        135,        135,        1,   393216, 0xf7bc0c89
0,        136,        136,        1,   393216, 0x06dacca6
0,        137,        137,        1,   393216, 0x7baaa4bd
0,        138,        138,        1,   393216, 0x95477f5f
0,        139,        139,        1,   393216, 0x51117526
0,        140,        140,        1,   393216, 0x69656d03
0,        141,        141,        1,   393216, 0xcbd061bb
0,        142,        142,        1,   393216, 0x8d1d5be2
0,        143,        143,        1,   393216, 0x43e55930
0,        144,        144,        1,   393216, 0xb56f5872
0,        145,        145,        1,   393216, 0x09a255e9
0,        146,        146,        1,   393216, 0xcaaa5456
0,        147,        147,        1,   393216, 0xd267501f
0,        148,        148,        1,   393216, 0x7bef4eca
0,        149,        149,        1,   393216, 0x9aa94af3
0,        150,        150,        1,   393216, 0xd39d4a29
0,        151,        151,        1,   393216, 0x7a754960
0,        152,        152,        1,   393216, 0x3f004921
0,        153,        153,        1,   393216, 0x0f784ca8
0,        154,        154,        1,   393216, 0x2a062c70
0,        155,        155,        1,   393216, 0x114ef770
0,        156,        156,        1,   393216, 0xfb7673bf
0,        157,        157,        1,   393216, 0xbaea88f7
0,        158,        158,        1,   393216, 0x6fdfe2ec
0,        159,        159,        1,   393216, 0xb7b2b398
0,        160,        160,        1,   393216, 0x14ba127e
0,        161,        161,        1,   393216, 0x660b3041
0,        162,        162,        1,   393216, 0xe3f3302a
0,        163,        163,        1,   393216, 0x34c7f1c9
0,        164,        164,        1,   393216, 0xa8257bf4
0,        165,        165,        1,   393216, 0xd63fc649
0,        166,        166,        1,   393216, 0xf8e5b79c
0,        167,        167,        1,   393216, 0xa67b52ab
0,        168,        168,        1,   393216, 0xef8f9c74
0,        169,        169,        1,   393216, 0x6d3aa6b6
0,        170,        170,        1,   393216, 0x8c174ee6
0,        171,        171,        1,   393216, 0x2dfbc524
0,        172,        172,        1,   393216, 0x7d0808b6
0,        173,        173,        1,   393216, 0x6cbdf6f5
0,        174,        174,        1,   393216, 0xfe39bc53
0,        175,        175,        1,   393216, 0xa3d869b0
0,        176,        176,        1,   393216, 0x09f00057
0,        177,        177,        1,   393216, 0x6ba56343
0,        178,        178,        1,   393216, 0xb696ca3e
0,        179,        179,        1,   393216, 0x4eba0225
0,        180,        180,        1,   393216, 0xdd45464b
0,        181,        181,        1,   393216, 0x2909a9ea
0,        182,        182,        1,   393216, 0x12aa3f85
0,        183,        183,        1,   393216, 0x59421352
0,        184,        184,        1,   393216, 0x57ea0313
0,        185,        185,        1,   393216, 0x4e5f3a38
0,        186,        186,        1,   393216, 0x55bc932d
0,        187,        187,        1,   393216, 0x666ee55d
0,        188,        188,        1,   393216, 0xb0f84a69
0,        189,        189,        1,   393216, 0xad3ae63f
0,        190,        190,        1,   393216, 0x970fd47d
0,        191,        191,        1,   393216, 0x86c418e0
0,        192,        192,        1,   393216, 0x52c9ce50
0,        193,        193,        1,   393216, 0xd54c98c8
0,        194,        194,        1,   393216, 0xb40e5fea
0,        195,        195,        1,   393216, 0x2aa74875
0,        196,        196,        1,   393216, 0x305b251e
0,        197,        197,        1,   393216, 0xab8c0780
0,        198,        198,        1,   393216, 0x0101dd0e
0,        199,        199,        1,   393216, 0x23739cab
0,        200,        200,        1,   393216, 0xf05196a0
0,        201,        201,        1,   393216, 0x932d1e00
0,        202,        202,        1,   393216, 0x932d1e00
0,        203,        203,        1,   393216, 0x932d1e00
0,        204,        204,        1,   393216, 0x932d1e00
0,        205,        205,        1,   393216, 0x932d1e00
0,        206,        206,        1,   393216, 0x932d1e00
0,        207,        207,        1,   393216, 0x932d1e00
0,        208,        208,        1,   393216, 0x932d1e00
0,        209,        209,        1,   393216, 0x932d1e00
